:SAMPLES-PER-SECOND 24
:FULLY-SPECIFIED
:DEGREES
278
root  4.71128 39.7543 34.2445 24.9027 -82.79 -17.5479
RightUpLeg  -12.6046 -9.52532 -6.30676
RightLeg  29.1135 -14.5474 -8.82751
RightFoot  -10.6376 -0.091594 3.1623
RightToes  -2.08645e-008 3.77894e-005 6.81332e-007
Spine  2.07001 1.37163 0.591363
Spine1  5.83809 1.98466 -2.6683
HEad  -38.7315 46.1552 -21.3939
LeftShoulder1  6.61243 -12.5275 -35.2226
LeftArm  4.81716 17.8137 -28.4067
LeftForeArm  153.919 -72.78 -146.47
LeftHand  -0.508602 -1.14754 9.1799
RightShoulder  4.17005 7.0105 33.7716
RightArm  18.8853 -29.4824 32.2757
RightForeArm  143.187 78.0744 128.423
RightHand  -0.0768482 9.23081 -1.00553
LeftUpLeg  -7.37705 4.43474 9.38702
LeftLeg  8.41424 10.8087 3.06808
LeftFoot  -6.03911 0.637643 -12.949
LeftToes  1.24767e-006 1.47042e-008 1.32732e-009
279
root  4.71873 39.5836 33.8147 28.7986 -88.5578 -21.8535
RightUpLeg  -12.3893 -16.4018 -5.20015
RightLeg  31.4836 -10.8076 -7.31329
RightFoot  -10.4586 -0.111911 6.08623
RightToes  -2.08645e-008 3.77894e-005 6.81332e-007
Spine  0.715133 1.29824 -1.9063
Spine1  6.44765 1.63867 -1.43471
HEad  -36.4843 47.2507 -20.2583
LeftShoulder1  6.47052 -12.3456 -34.8094
LeftArm  5.0338 14.6297 -25.6103
LeftForeArm  149.669 -73.8051 -143.565
LeftHand  -0.53037 -1.42283 9.20053
RightShoulder  4.08059 6.94265 33.1744
RightArm  21.5278 -29.7945 29.5008
RightForeArm  146.693 77.1473 133.215
RightHand  -0.0625507 9.22767 -0.89525
LeftUpLeg  -5.0143 5.715 8.87492
LeftLeg  7.84372 15.1567 2.44247
LeftFoot  -6.69648 0.593396 -13.5591
LeftToes  1.24767e-006 1.47042e-008 1.32732e-009
280
root  4.72664 39.1108 33.2806 -165.052 -84.9756 172.28
RightUpLeg  -11.837 -17.0273 -4.6622
RightLeg  29.0793 -10.5929 -6.52548
RightFoot  -14.5272 0.0979617 7.23476
RightToes  -2.08645e-008 3.77894e-005 6.81332e-007
Spine  -1.86873 1.55348 -3.96189
Spine1  7.90452 1.91911 -0.784123
HEad  -32.577 44.8558 -16.7398
LeftShoulder1  6.68752 -12.4693 -35.8272
LeftArm  5.92349 9.73701 -19.553
LeftForeArm  141.321 -75.8608 -136.452
LeftHand  -0.543668 -1.64625 9.14567
RightShoulder  4.01587 6.81469 33.0347
RightArm  21.4663 -27.8714 28.3132
RightForeArm  136.164 78.7559 122.888
RightHand  -0.322305 8.58402 -3.05677
LeftUpLeg  -5.85584 9.64291 8.1668
LeftLeg  12.6552 16.0896 3.16353
LeftFoot  -9.52529 0.290196 -15.1403
LeftToes  1.24767e-006 1.47042e-008 1.32732e-009
281
root  4.8947 38.5477 32.8607 -170.18 -78.2585 176.862
RightUpLeg  -11.8823 -10.6155 -3.56378
RightLeg  28.1356 -12.477 -7.36457
RightFoot  -19.2187 0.215194 5.08445
RightToes  -2.08645e-008 3.77894e-005 6.81332e-007
Spine  -0.931067 1.81179 -0.391816
Spine1  7.69082 3.02957 -4.58881
HEad  -29.4938 37.772 -12.9732
LeftShoulder1  6.99647 -12.7494 -36.9779
LeftArm  5.44125 5.99411 -13.7445
LeftForeArm  129.574 -78.1887 -124.096
LeftHand  -0.574977 -2.18781 9.01248
RightShoulder  4.15074 6.87121 34.115
RightArm  19.5189 -23.513 28.1602
RightForeArm  102.986 80.4894 89.4872
RightHand  -0.34891 8.59503 -3.27346
LeftUpLeg  -8.35682 15.6433 8.85854
LeftLeg  22.3578 14.4964 6.56054
LeftFoot  -12.4459 -0.118363 -19.3852
LeftToes  1.24767e-006 1.47042e-008 1.32732e-009
282
root  5.13999 38.1785 32.5998 -178.713 -71.0643 -175.857
RightUpLeg  -12.5087 -3.86451 -1.53458
RightLeg  30.2548 -11.6127 -7.45648
RightFoot  -20.6512 0.116224 3.14512
RightToes  -2.08645e-008 3.77894e-005 6.81332e-007
Spine  2.26448 1.73045 3.76281
Spine1  7.75624 3.5023 -7.31561
HEad  -29.1955 28.3593 -11.006
LeftShoulder1  7.10045 -12.8944 -37.223
LeftArm  1.90031 6.0523 -12.9958
LeftForeArm  110.735 -79.9922 -103.309
LeftHand  -0.661829 -2.49076 9.95957
RightShoulder  4.17882 6.93398 34.1444
RightArm  18.129 -17.5349 28.1786
RightForeArm  76.4826 79.3799 62.892
RightHand  -0.531865 8.2155 -4.90294
LeftUpLeg  -11.6696 17.5183 11.4613
LeftLeg  35.8565 18.0179 13.8484
LeftFoot  -9.63774 0.350774 -19.5695
LeftToes  1.24767e-006 1.47042e-008 1.32732e-009
283
root  5.23684 38.1087 32.4566 177.887 -64.399 -172.66
RightUpLeg  -12.9211 -0.151259 0.346329
RightLeg  30.2557 -8.94635 -5.83963
RightFoot  -20.1144 0.0390272 2.28163
RightToes  -2.08645e-008 3.77894e-005 6.81332e-007
Spine  4.26989 1.38354 2.98959
Spine1  8.315 2.40173 -4.22627
HEad  -28.8157 18.2458 -7.42923
LeftShoulder1  7.21467 -13.0479 -37.5011
LeftArm  -3.88809 10.4831 -17.0636
LeftForeArm  96.5745 -80.253 -89.3212
LeftHand  -0.729846 -1.87224 11.8484
RightShoulder  3.96572 6.78925 32.6428
RightArm  17.9942 -13.6181 28.2191
RightForeArm  75.8215 79.3218 62.4544
RightHand  -0.661535 7.89109 -6.13116
LeftUpLeg  -15.8205 17.5747 13.2518
LeftLeg  46.634 17.853 19.4671
LeftFoot  -3.70927 0.861669 -12.4129
LeftToes  1.24767e-006 1.47042e-008 1.32732e-009
